<svg width="127" height="22" viewBox="0 0 127 22" fill="none" xmlns="http://www.w3.org/2000/svg">
<path d="M98.8352 4.80076C97.9615 4.80076 97.4267 5.32467 97.4267 6.18046V12.3338C97.4267 14.2645 96.4401 15.2309 94.5265 15.2309C92.613 15.2309 91.5965 14.2645 91.5965 12.3338V6.18046C91.5965 5.32467 91.0617 4.80076 90.188 4.80076C89.3144 4.80076 88.7795 5.32467 88.7795 6.18046V12.3338C88.7795 15.7277 90.9765 17.8526 94.4967 17.8526C98.0169 17.8526 100.242 15.7277 100.242 12.3338V6.18046C100.242 5.32467 99.7067 4.80076 98.8331 4.80076H98.8352Z" fill="#0050D7"/>
<path d="M105.172 0C104.299 0 103.764 0.551044 103.764 1.40683V16.333C103.764 17.1888 104.299 17.7398 105.172 17.7398C106.046 17.7398 106.581 17.1888 106.581 16.333V1.40683C106.581 0.551044 106.046 0 105.172 0Z" fill="#0050D7"/>
<path d="M81.1466 1.68235C78.6109 1.68235 77.2023 3.03491 76.9211 5.71082L76.0751 13.8491C75.9899 14.6486 75.4827 15.0639 74.6112 15.0639C73.7396 15.0639 73.2304 14.6507 73.1473 13.8491L72.3013 5.71082C72.02 3.03491 70.6115 1.68235 68.0757 1.68235C65.54 1.68235 63.9631 3.22694 63.9631 5.71082V16.333C63.9631 17.1888 64.4979 17.7398 65.3716 17.7398C66.2453 17.7398 66.7801 17.1888 66.7801 16.333V5.71082C66.7801 4.85503 67.2873 4.33112 68.1311 4.33112C68.975 4.33112 69.399 4.80076 69.4821 5.71082L70.3281 13.8491C70.6094 16.4436 72.0456 17.7398 74.609 17.7398C77.1725 17.7398 78.6087 16.4436 78.89 13.8491L79.736 5.71082C79.8212 4.80076 80.2708 4.33112 81.087 4.33112C81.9031 4.33112 82.438 4.85503 82.438 5.71082V16.333C82.438 17.1888 82.9728 17.7398 83.8465 17.7398C84.7202 17.7398 85.255 17.1888 85.255 16.333V5.71082C85.255 3.22694 83.6781 1.68235 81.1424 1.68235H81.1466Z" fill="#0050D7"/>
<path d="M124.297 4.80076C123.424 4.80076 122.889 5.3518 122.889 6.20759V16.333C122.889 17.1888 123.424 17.7398 124.297 17.7398C125.171 17.7398 125.706 17.1888 125.706 16.333V6.20759C125.706 5.3518 125.171 4.80076 124.297 4.80076Z" fill="#0050D7"/>
<path d="M124.297 3.31044C125.246 3.31044 126.015 2.56937 126.015 1.65522C126.015 0.741066 125.246 0 124.297 0C123.349 0 122.58 0.741066 122.58 1.65522C122.58 2.56937 123.349 3.31044 124.297 3.31044Z" fill="#0050D7"/>
<path d="M118.693 14.9805C118.186 14.9805 117.651 15.2288 116.946 15.2288C115.311 15.2288 114.467 14.3459 114.467 12.6072V7.4203H118.439C119.313 7.4203 119.848 6.95066 119.848 6.17837C119.848 5.40607 119.313 4.93643 118.439 4.93643H114.467V3.0871C114.467 2.23131 113.933 1.68027 113.087 1.68027C112.241 1.68027 111.706 2.23131 111.706 3.0871V4.93643H110.101C109.228 4.93643 108.693 5.40607 108.693 6.17837C108.693 6.95066 109.228 7.4203 110.101 7.4203H111.706V12.6072C111.706 15.8362 113.705 17.8484 116.946 17.8484C118.241 17.8484 119.989 17.4894 119.989 16.3038C119.989 15.5858 119.509 14.9805 118.693 14.9805Z" fill="#0050D7"/>
<path d="M0.47519 18.412H1.57047C1.84536 20.1924 3.21339 21.1442 5.75342 21.1442C8.91567 21.1442 10.2603 19.4848 10.2603 17.1679V14.3877C9.68705 15.974 8.21886 17.5102 5.5041 17.5102C2.09254 17.5102 0 15.0702 0 11.3882V10.9249C0 7.19279 2.09254 4.80285 5.5041 4.80285C8.31902 4.80285 9.7872 6.53529 10.3114 7.99848L10.337 5.09507H11.2575V17.17C11.2575 19.8772 9.6146 22 5.72785 22C2.54003 22 0.796955 20.6349 0.473059 18.414L0.47519 18.412ZM10.3114 11.3861V10.9228C10.3114 7.70209 8.56833 5.67742 5.60426 5.67742C2.64018 5.67742 1.0484 7.70417 1.0484 10.9228V11.3861C1.0484 14.5818 2.66788 16.6315 5.60639 16.6315C8.54489 16.6315 10.3135 14.5818 10.3135 11.3861H10.3114Z" fill="#0050D7"/>
<path d="M14.7458 17.5583V5.09298H15.7175L15.7431 7.82524C16.2907 6.06983 17.8356 4.80076 19.9026 4.80076C20.0262 4.80076 20.2265 4.80076 20.4012 4.82581V5.85066C20.203 5.82562 20.0283 5.82562 19.8791 5.82562C17.4627 5.82562 15.7452 7.41195 15.7452 10.5345V17.5603H14.7501L14.7458 17.5583Z" fill="#0050D7"/>
<path d="M22.4916 13.1917V5.09298H23.4867V13.0205C23.4867 15.4835 24.6566 16.9488 27.073 16.9488C29.6621 16.9488 31.1068 15.0222 31.1068 12.2398V5.09298H32.1019V17.5583H31.1303L31.1047 14.9972C30.5315 16.6065 28.9887 17.8505 26.8962 17.8505C24.0322 17.8505 22.4873 16.118 22.4873 13.1917H22.4916Z" fill="#0050D7"/>
<path d="M35.5902 21.7057V5.09298H36.5363L36.5619 7.99639C37.084 6.53321 38.5287 4.80076 41.3692 4.80076C44.7552 4.80076 46.8477 7.2408 46.8477 11.0459V11.6074C46.8477 15.4125 44.7808 17.8526 41.3436 17.8526C38.6033 17.8526 37.1607 16.2182 36.5875 14.73V21.7057H35.5902ZM45.8249 11.6074V11.0459C45.8249 7.75218 44.2054 5.67951 41.2435 5.67951C38.2815 5.67951 36.5619 7.75218 36.5619 11.0459V11.6074C36.5619 14.9241 38.305 16.9738 41.2435 16.9738C44.182 16.9738 45.8249 14.9011 45.8249 11.6074Z" fill="#0050D7"/>
<path d="M48.9147 11.6074V11.0459C48.9147 7.21575 51.1308 4.80076 54.6681 4.80076C58.2054 4.80076 60.445 7.21575 60.445 11.0459V11.6074C60.445 15.4376 58.2289 17.8526 54.6681 17.8526C51.1074 17.8526 48.9147 15.4376 48.9147 11.6074ZM59.3987 11.6074V11.0459C59.3987 7.72922 57.7046 5.67951 54.666 5.67951C51.6273 5.67951 49.9588 7.72922 49.9588 11.0459V11.6074C49.9588 14.9241 51.6529 16.9738 54.666 16.9738C57.6791 16.9738 59.3987 14.9241 59.3987 11.6074Z" fill="#0050D7"/>
</svg>
